<?xml version="1.0" standalone="no"?><!DOCTYPE svg PUBLIC "-//W3C//DTD SVG 1.1//EN" "http://www.w3.org/Graphics/SVG/1.1/DTD/svg11.dtd"><svg t="1600397941588" class="icon" viewBox="0 0 1024 1024" version="1.1" xmlns="http://www.w3.org/2000/svg" p-id="749" xmlns:xlink="http://www.w3.org/1999/xlink" width="16" height="16"><defs><style type="text/css"></style></defs><path d="M512 42.666667a42.666667 42.666667 0 0 0-42.666667 42.666666v170.666667a42.666667 42.666667 0 0 0 64 36.693333c22.4-10.88 21.333333-33.066667 21.333334-54.4V85.333333a42.666667 42.666667 0 0 0-42.666667-42.666666z" p-id="750"></path><path d="M240.426667 180.053333a42.666667 42.666667 0 0 0-60.373334 60.373334l120.746667 120.746666a42.666667 42.666667 0 1 0 60.373333-60.373333z" p-id="751"></path><path d="M298.666667 512a42.666667 42.666667 0 0 0-42.666667-42.666667H85.333333a42.666667 42.666667 0 0 0-36.693333 64c10.88 22.4 33.066667 21.333333 54.4 21.333334H256a42.666667 42.666667 0 0 0 42.666667-42.666667z" p-id="752"></path><path d="M300.8 662.826667l-120.746667 120.746666a42.666667 42.666667 0 0 0 60.373334 60.373334l120.746666-120.746667a42.666667 42.666667 0 1 0-60.373333-60.373333z" p-id="753"></path><path d="M512 725.333333a42.666667 42.666667 0 0 0-42.666667 42.666667v170.666667a42.666667 42.666667 0 0 0 64 36.693333c22.4-10.88 21.333333-33.066667 21.333334-54.4V768a42.666667 42.666667 0 0 0-42.666667-42.666667z" p-id="754"></path><path d="M723.2 662.826667a42.666667 42.666667 0 0 0-60.373333 60.373333l120.746666 120.746667a42.666667 42.666667 0 0 0 60.373334-60.373334zM938.666667 469.333333h-170.666667a42.666667 42.666667 0 0 0-36.693333 64c10.88 22.4 33.066667 21.333333 54.4 21.333334H938.666667c55.04 0 55.04-85.333333 0-85.333334zM723.2 361.173333l120.746667-120.746666a42.666667 42.666667 0 0 0-60.373334-60.373334l-120.746666 120.746667a42.666667 42.666667 0 1 0 60.373333 60.373333z" p-id="755"></path></svg>